<?xml version="1.0" encoding="UTF-8"?>
<svg width="420px" height="471px" viewBox="0 0 420 471" version="1.1" xmlns="http://www.w3.org/2000/svg" xmlns:xlink="http://www.w3.org/1999/xlink">
    <!-- Generator: Sketch 40.1 (33804) - http://www.bohemiancoding.com/sketch -->
    <title>icon-spacegrid</title>
    <desc>Created with Sketch.</desc>
    <defs></defs>
    <g id="Page-1" stroke="none" stroke-width="1" fill="none" fill-rule="evenodd">
        <g id="icon-spacegrid" transform="translate(2.000000, 4.000000)">
            <g id="layer1">
                <g id="g4285" transform="translate(208.929728, 232.000000) scale(-1, 1) translate(-208.929728, -232.000000) translate(0.929728, 0.000000)">
                    <path d="M2.41809409,180.188382 C2.41809409,80.7383127 94.7939689,0.118431473 208.74582,0.118431473 C322.69767,0.118431473 415.073545,80.7383127 415.073545,180.188382 C415.073545,279.638452 283.397146,360.258333 169.445296,360.258333 C55.4934451,360.258333 2.41809409,279.638452 2.41809409,180.188382 L2.41809409,180.188382 Z" id="path4186" fill="#FFFFFF"></path>
                    <path d="M41.7186179,68.7164957 C41.7186179,68.7164957 238.221198,68.7164957 238.221198,154.464101 C238.221198,223.062185 179.270422,308.80977 41.7186179,308.80977 C41.7186179,308.80977 -50.382162,191.438469 41.7186179,68.7164957 L41.7186179,68.7164957 Z" id="path4188" fill="#234A77"></path>
                    <path d="M61.36887,197.337903 C61.36887,197.337903 41.7186179,111.590298 120.319646,77.2912562" id="path4190" stroke="#FFFFFF" stroke-width="6.40979001"></path>
                    <path d="M139.969918,360.258333 L100.669394,446.005939 C100.669394,446.005939 100.669394,463.15546 120.319646,463.15546 C139.969918,463.15546 375.773021,428.856418 415.073545,325.959291 L375.773021,274.510748 C375.773021,274.510748 280.783666,370.616651 139.969918,360.258333 L139.969918,360.258333 Z" id="path4192" fill="#FFFFFF"></path>
                    <path d="M2.41809409,180.188382 C2.41809409,80.7383127 94.7939689,0.118431473 208.74582,0.118431473 C322.69767,0.118431473 415.073545,80.7383127 415.073545,180.188382 C415.073545,279.638452 283.397146,360.258333 169.445296,360.258333 C55.4934451,360.258333 2.41809409,279.638452 2.41809409,180.188382 L2.41809409,180.188382 Z" id="path4194" stroke="#4D5152" stroke-width="6.40979001"></path>
                    <path d="M41.7186179,68.7164957 C41.7186179,68.7164957 238.221198,68.7164957 238.221198,154.464101 C238.221198,223.062185 179.270422,308.80977 41.7186179,308.80977" id="path4196" stroke="#4D5152" stroke-width="6.40979001"></path>
                    <path d="M287.346848,163.038861 C287.346848,163.038861 287.346848,128.739819 326.647371,128.739819 C365.947895,128.739819 365.947895,163.038861 365.947895,163.038861 L365.947895,197.337903 C365.947895,197.337903 365.947895,231.636946 326.647371,231.636946 C287.346848,231.636946 287.346848,197.337903 287.346848,197.337903 L287.346848,163.038861 L287.346848,163.038861 Z" id="path4198" fill-opacity="0.718127264" fill="#59218A"></path>
                    <path d="M287.346848,163.038861 C287.346848,163.038861 287.346848,128.739819 326.647371,128.739819 C365.947895,128.739819 365.947895,163.038861 365.947895,163.038861 L365.947895,197.337903 C365.947895,197.337903 365.947895,231.636946 326.647371,231.636946 C287.346848,231.636946 287.346848,197.337903 287.346848,197.337903 L287.346848,163.038861 L287.346848,163.038861 Z" id="path4200" stroke="#4D5152" stroke-width="6.40979001"></path>
                    <path d="M139.969918,360.258333 L100.669394,446.005939 C100.669394,446.005939 100.669394,463.15546 120.319646,463.15546 C139.969918,463.15546 375.773021,428.856418 415.073545,325.959291 L375.773021,274.510748" id="path4202" stroke="#4D5152" stroke-width="6.40979001"></path>
                    <path d="M277.521643,274.510609 L375.772923,274.510609" id="line4204" stroke="#4D5152" stroke-width="6.40979001"></path>
                    <path d="M257.87141,308.809671 L329.693082,308.809671" id="line4206" stroke="#4D5152" stroke-width="6.40979001"></path>
                </g>
            </g>
        </g>
    </g>
</svg>