<?xml version="1.0" encoding="UTF-8"?>
<svg width="131px" height="147px" viewBox="0 0 131 147" version="1.1" xmlns="http://www.w3.org/2000/svg" xmlns:xlink="http://www.w3.org/1999/xlink">
    <!-- Generator: Sketch 40.1 (33804) - http://www.bohemiancoding.com/sketch -->
    <title>icon-spacegrid</title>
    <desc>Created with Sketch.</desc>
    <defs></defs>
    <g id="Page-1" stroke="none" stroke-width="1" fill="none" fill-rule="evenodd">
        <g id="icon-spacegrid" transform="translate(1.000000, 1.000000)">
            <g id="layer1">
                <g id="g4285" transform="translate(64.500000, 72.500000) scale(-1, 1) translate(-64.500000, -72.500000) ">
                    <path d="M0.225940265,56.0849057 C0.225940265,25.1100109 29.0023565,0 64.5,0 C99.9976435,0 128.77406,25.1100109 128.77406,56.0849057 C128.77406,87.0598004 87.754964,112.169811 52.2573205,112.169811 C16.7596769,112.169811 0.225940265,87.0598004 0.225940265,56.0849057 L0.225940265,56.0849057 Z" id="path4186" fill="#FFFFFF"></path>
                    <path d="M12.811496,21.8867925 C12.811496,21.8867925 72.702673,21.8867925 72.702673,48.7567408 C72.702673,70.2526994 54.7353193,97.1226415 12.811496,97.1226415 C12.811496,97.1226415 -15.259505,60.3430626 12.811496,21.8867925 L12.811496,21.8867925 Z" id="path4188" fill="#234A77"></path>
                    <path d="M17.3201046,61.5566038 C17.3201046,61.5566038 11.1662072,35.1752022 35.7818031,24.6226415" id="path4190" stroke="#FFFFFF" stroke-width="6.40979001"></path>
                    <path d="M42.6194706,112.915949 L30.3116704,139.652658 C30.3116704,139.652658 30.3116704,145 36.4655674,145 C42.6194706,145 116.46626,134.305316 128.77406,102.221265 L116.46626,86.1792453 C116.46626,86.1792453 86.7183097,116.145745 42.6194706,112.915949 L42.6194706,112.915949 Z" id="path4192" fill="#FFFFFF"></path>
                    <path d="M0.225940265,56.0849057 C0.225940265,25.1100109 29.0023565,0 64.5,0 C99.9976435,0 128.77406,25.1100109 128.77406,56.0849057 C128.77406,87.0598004 87.754964,112.169811 52.2573205,112.169811 C16.7596769,112.169811 0.225940265,87.0598004 0.225940265,56.0849057 L0.225940265,56.0849057 Z" id="path4194" stroke="#4D5152" stroke-width="2"></path>
                    <path d="M13.5948511,21.8867925 C13.5948511,21.8867925 72.7177214,21.8867925 72.7177214,48.7567408 C72.7177214,70.2526994 54.9808597,97.1226415 13.5948511,97.1226415" id="path4196" stroke="#4D5152" stroke-width="2"></path>
                    <path d="M87.7480642,50.6132075 C87.7480642,50.6132075 87.7480642,39.6698113 100.055863,39.6698113 C112.363662,39.6698113 112.363662,50.6132075 112.363662,50.6132075 L112.363662,61.5566038 C112.363662,61.5566038 112.363662,72.5 100.055863,72.5 C87.7480642,72.5 87.7480642,61.5566038 87.7480642,61.5566038 L87.7480642,50.6132075 L87.7480642,50.6132075 Z" id="path4198" fill-opacity="0.718127264" fill="#59218A"></path>
                    <path d="M42.9079394,111.839438 L30.3116704,139.652658 C30.3116704,139.652658 30.3116704,145 36.4655674,145 C42.6194706,145 116.46626,134.305316 128.77406,102.221265 L116.46626,86.1792453" id="path4202" stroke="#4D5152" stroke-width="2"></path>
                </g>
            </g>
        </g>
    </g>
</svg>