<?xml version="1.0" encoding="UTF-8"?>
<svg width="97px" height="108px" viewBox="0 0 97 108" version="1.1" xmlns="http://www.w3.org/2000/svg" xmlns:xlink="http://www.w3.org/1999/xlink">
    <!-- Generator: Sketch 40.1 (33804) - http://www.bohemiancoding.com/sketch -->
    <title>icon-spacegrid</title>
    <desc>Created with Sketch.</desc>
    <defs></defs>
    <g id="Page-1" stroke="none" stroke-width="1" fill="none" fill-rule="evenodd">
        <g id="icon-spacegrid" transform="translate(1.000000, 1.000000)">
            <g id="layer1">
                <g id="g4285" transform="translate(48.000000, 53.000000) scale(-1, 1) translate(-48.000000, -53.000000) ">
                    <path d="M1,41 C1,18.3562838 22.0425725,0 48,0 C73.9574275,0 95,18.3562838 95,41 C95,63.6437162 65.0050455,82 39.047618,82 C13.0901905,82 1,63.6437162 1,41 L1,41 Z" id="path4186" fill="#FFFFFF"></path>
                    <path d="M10.2031081,16 C10.2031081,16 53.9981528,16 53.9981528,35.6428588 C53.9981528,51.3571458 40.8596389,71 10.2031081,71 C10.2031081,71 -10.323634,44.1128595 10.2031081,16 L10.2031081,16 Z" id="path4188" fill="#234A77"></path>
                    <path d="M13.4999997,45 C13.4999997,45 9.00000107,25.7142857 27,18" id="path4190" stroke="#FFFFFF" stroke-width="6.40979001"></path>
                    <path d="M32.0000011,82.5454521 L23,102.090909 C23,102.090909 23,106 27.4999983,106 C32.0000011,106 85.9999989,98.1818174 95,74.7272694 L85.9999989,63 C85.9999989,63 64.2469986,84.9065448 32.0000011,82.5454521 L32.0000011,82.5454521 Z" id="path4192" fill="#FFFFFF"></path>
                    <path d="M1,41 C1,18.3562838 22.0425725,0 48,0 C73.9574275,0 95,18.3562838 95,41 C95,63.6437162 65.0050455,82 39.047618,82 C13.0901905,82 1,63.6437162 1,41 L1,41 Z" id="path4194" stroke="#4D5152" stroke-width="2"></path>
                    <path d="M10.7759316,16 C10.7759316,16 54.0091568,16 54.0091568,35.6428588 C54.0091568,51.3571458 41.0391888,71 10.7759316,71" id="path4196" stroke="#4D5152" stroke-width="2"></path>
                    <path d="M65,37 C65,37 65,29 74,29 C83,29 83,37 83,37 L83,45 C83,45 83,53 74,53 C65,53 65,45 65,45 L65,37 L65,37 Z" id="path4198" fill-opacity="0.718127264" fill="#59218A"></path>
                    <path d="M32.2109421,81.7584855 L23,102.090909 C23,102.090909 23,106 27.4999983,106 C32.0000011,106 85.9999989,98.1818174 95,74.7272694 L85.9999989,63" id="path4202" stroke="#4D5152" stroke-width="2"></path>
                    <path id="line4204" stroke="#4D5152" stroke-width="6.40979001"></path>
                    <path id="line4206" stroke="#4D5152" stroke-width="6.40979001"></path>
                </g>
            </g>
        </g>
    </g>
</svg>