<?xml version="1.0" encoding="UTF-8" standalone="no"?>
<svg
   xmlns:dc="http://purl.org/dc/elements/1.1/"
   xmlns:cc="http://creativecommons.org/ns#"
   xmlns:rdf="http://www.w3.org/1999/02/22-rdf-syntax-ns#"
   xmlns:svg="http://www.w3.org/2000/svg"
   xmlns="http://www.w3.org/2000/svg"
   version="1.1"
   id="svg2"
   viewBox="0 0 744.09448819 1052.3622047"
   height="297mm"
   width="210mm">
  <defs
     id="defs4">
    <filter
       id="filter7461"
       style="color-interpolation-filters:sRGB;">
      <feComposite
         id="feComposite7463"
         result="composite1"
         k2="1.4"
         k1="2.8"
         operator="arithmetic"
         in2="SourceGraphic" />
      <feColorMatrix
         id="feColorMatrix7465"
         result="colormatrix1"
         type="saturate"
         values="1"
         in="composite1" />
      <feFlood
         id="feFlood7467"
         result="flood1"
         flood-color="rgb(43,43,43)"
         flood-opacity="0.94902" />
      <feBlend
         id="feBlend7469"
         result="blend1"
         mode="multiply"
         in2="colormatrix1"
         in="flood1" />
      <feBlend
         id="feBlend7471"
         result="blend2"
         mode="screen"
         in2="blend1" />
      <feColorMatrix
         id="feColorMatrix7473"
         result="colormatrix2"
         type="saturate"
         values="1"
         in="blend2" />
      <feComposite
         id="feComposite7475"
         result="composite2"
         k2="1"
         operator="in"
         in2="SourceGraphic"
         in="colormatrix2" />
    </filter>
    <filter
       id="filter7461-8"
       style="color-interpolation-filters:sRGB">
      <feComposite
         id="feComposite7463-4"
         result="composite1"
         k2="1.4"
         k1="2.8"
         operator="arithmetic"
         in2="SourceGraphic"
         k3="0"
         k4="0" />
      <feColorMatrix
         id="feColorMatrix7465-6"
         result="colormatrix1"
         type="saturate"
         values="1"
         in="composite1" />
      <feFlood
         id="feFlood7467-9"
         result="flood1"
         flood-color="rgb(43,43,43)"
         flood-opacity="0.94902" />
      <feBlend
         id="feBlend7469-2"
         result="blend1"
         mode="multiply"
         in2="colormatrix1"
         in="flood1" />
      <feBlend
         id="feBlend7471-9"
         result="blend2"
         mode="screen"
         in2="blend1" />
      <feColorMatrix
         id="feColorMatrix7473-0"
         result="colormatrix2"
         type="saturate"
         values="1"
         in="blend2" />
      <feComposite
         id="feComposite7475-3"
         result="composite2"
         operator="in"
         in2="SourceGraphic"
         in="colormatrix2" />
    </filter>
    <filter
       id="filter7461-8-0"
       style="color-interpolation-filters:sRGB">
      <feComposite
         id="feComposite7463-4-3"
         result="composite1"
         k2="1.4"
         k1="2.8"
         operator="arithmetic"
         in2="SourceGraphic"
         k3="0"
         k4="0" />
      <feColorMatrix
         id="feColorMatrix7465-6-3"
         result="colormatrix1"
         type="saturate"
         values="1"
         in="composite1" />
      <feFlood
         id="feFlood7467-9-7"
         result="flood1"
         flood-color="rgb(43,43,43)"
         flood-opacity="0.94902" />
      <feBlend
         id="feBlend7469-2-9"
         result="blend1"
         mode="multiply"
         in2="colormatrix1"
         in="flood1" />
      <feBlend
         id="feBlend7471-9-4"
         result="blend2"
         mode="screen"
         in2="blend1" />
      <feColorMatrix
         id="feColorMatrix7473-0-9"
         result="colormatrix2"
         type="saturate"
         values="1"
         in="blend2" />
      <feComposite
         id="feComposite7475-3-9"
         result="composite2"
         operator="in"
         in2="SourceGraphic"
         in="colormatrix2" />
    </filter>
    <filter
       id="filter7969"
       style="color-interpolation-filters:sRGB;"
       height="1.5"
       y="-0.25">
      <feGaussianBlur
         id="feGaussianBlur7971"
         result="result6"
         stdDeviation="5" />
      <feComposite
         id="feComposite7973"
         in2="result6"
         operator="atop"
         in="SourceGraphic"
         result="result8" />
      <feComposite
         id="feComposite7975"
         in="result8"
         in2="SourceAlpha"
         operator="over"
         result="result9" />
      <feColorMatrix
         id="feColorMatrix7977"
         result="result10"
         values="1 0 0 0 0 0 1 0 0 0 0 0 1 0 0 0 0 0 1 0 " />
      <feBlend
         id="feBlend7979"
         in2="result6"
         mode="normal"
         in="result10" />
    </filter>
  </defs>
  <metadata
     id="metadata7">
    <rdf:RDF>
      <cc:Work
         rdf:about="">
        <dc:format>image/svg+xml</dc:format>
        <dc:type
           rdf:resource="http://purl.org/dc/dcmitype/StillImage" />
        <dc:title></dc:title>
      </cc:Work>
    </rdf:RDF>
  </metadata>
  <g
     id="layer1">
    <g
       style="filter:url(#filter7461-8-0)"
       transform="matrix(1.4838877,0,0,1.4188788,-154.9383,-243.63193)"
       id="g7209">
      <g
         transform="matrix(15.358597,0,0,15.502904,96.704158,286.10748)"
         id="g7141">
        <path
           style="fill:#bfbfbf"
           d="M 16,29.5 C 8.556,29.5 2.5,23.444 2.5,16 2.5,8.556 8.556,2.5 16,2.5 c 7.444,0 13.5,6.056 13.5,13.5 0,7.444 -6.056,13.5 -13.5,13.5 z"
           id="path7143" />
      </g>
      <g
         transform="matrix(15.358597,0,0,15.502904,96.704158,286.10748)"
         id="g7145">
        <path
           style="fill:#4d5152"
           d="M 16,3 C 23.168,3 29,8.832 29,16 29,23.168 23.168,29 16,29 8.832,29 3,23.168 3,16 3,8.832 8.832,3 16,3 M 16,2 C 8.268,2 2,8.268 2,16 2,23.732 8.268,30 16,30 23.732,30 30,23.732 30,16 30,8.268 23.732,2 16,2 l 0,0 z"
           id="path7147" />
      </g>
      <g
         transform="matrix(15.358597,0,0,15.502904,96.704158,286.10748)"
         id="g7149">
        <path
           style="fill:#aaaaaa"
           d="M 12.5,13 C 10.57,13 9,11.43 9,9.5 9,7.57 10.57,6 12.5,6 14.43,6 16,7.57 16,9.5 16,11.43 14.43,13 12.5,13 Z"
           id="path7151" />
      </g>
      <g
         transform="matrix(15.358597,0,0,15.502904,96.704158,286.10748)"
         id="g7153">
        <circle
           style="fill:#aaaaaa"
           cx="6"
           cy="14"
           r="1.5"
           id="circle7155" />
      </g>
      <g
         transform="matrix(15.358597,0,0,15.502904,96.704158,286.10748)"
         id="g7157">
        <circle
           style="fill:#aaaaaa"
           cx="11"
           cy="18"
           r="2.5"
           id="circle7159" />
      </g>
    </g>
    <g
       transform="matrix(8.334025,0,0,8.742134,-3368.3996,-3171.557)"
       id="g6256">
      <g
         transform="translate(424.02125,432.83768)"
         id="g6050">
        <path
           style="fill:#67dde0"
           d="m 25.257,4.763 0.658,0.007 c 0.929,0.009 2.596,0.438 3.328,3.202 0.783,2.921 -0.639,4.094 -1.286,4.462 l -0.563,0.32 -2.137,-7.991 z"
           id="path6052" />
        <polygon
           style="fill:#aaaaaa"
           points="27.355,12.679 20.086,13.943 16.305,14.59 14.729,8.708 25.251,4.832 "
           id="polygon6054" />
      </g>
      <g
         transform="translate(424.02125,432.83768)"
         id="g6056">
        <path
           style="fill:#bfbfbf"
           d="m 14.5,17.5 c -1.579,0 -2,-1.257 -2,-2 l 0,-1.205 3.532,-0.662 0.261,0.967 3.207,-0.544 0,2.444 c 0,0.581 -0.384,0.973 -0.978,0.999 l -0.011,0.001 -4.011,0 z"
           id="path6058" />
      </g>
      <g
         transform="translate(424.02125,432.83768)"
         id="g6060">
        <polygon
           style="fill:#aaaaaa"
           points="3.017,16.048 2.498,14.103 4.404,13.428 5.001,15.67 "
           id="polygon6062" />
        <polygon
           style="fill:#ffffff"
           points="5.016,15.677 4.418,13.422 14.985,9.698 16.021,13.612 "
           id="polygon6064" />
      </g>
      <g
         transform="translate(424.02125,432.83768)"
         id="g6066">
        <path
           style="fill:#aaaaaa"
           d="m 14.5,19.5 c -0.581,0 -0.973,-0.384 -1,-0.978 l 0,-1.174 0.599,0.121 c 0.12,0.024 0.256,0.03 0.401,0.03 l 3,0 0,1 c 0,0.582 -0.384,0.975 -0.979,1 l -0.01,0 -2.011,0 z"
           id="path6068" />
      </g>
      <path
         style="fill:none;stroke:#4d5152;stroke-width:1.0165;stroke-linejoin:round;stroke-miterlimit:10"
         stroke-miterlimit="10"
         d="m 440.32025,447.43768 11.063,-1.913 c 0,0 2.944,-0.789 1.894,-4.717 -1.053,-3.928 -3.999,-3.138 -3.999,-3.138 l -10.537,3.876 1.579,5.892 z"
         id="path6070" />
      <polyline
         transform="translate(424.02125,432.83768)"
         style="fill:none;stroke:#4d5152;stroke-width:1.0165;stroke-linejoin:round;stroke-miterlimit:10"
         stroke-miterlimit="10"
         points="14.983,9.69   2.482,14.092 3.008,16.056 16.035,13.617 "
         id="polyline6072" />
      <path
         style="fill:none;stroke:#4d5152;stroke-miterlimit:10"
         stroke-miterlimit="10"
         d="m 436.52125,447.33768 0,1 c 0,0 0,2 2,2 1,0 4,0 4,0 0,0 1,0 1,-1 l 0,-2.5"
         id="path6074" />
      <line
         style="fill:none;stroke:#4d5152;stroke-width:1.0165;stroke-linecap:round;stroke-miterlimit:10"
         stroke-miterlimit="10"
         x1="449.01526"
         y1="436.68768"
         x2="451.64825"
         y2="446.50668"
         id="line6076" />
      <line
         style="fill:none;stroke:#4d5152;stroke-width:1.0165;stroke-linecap:round;stroke-miterlimit:10"
         stroke-miterlimit="10"
         x1="428.20425"
         y1="445.42068"
         x2="429.25525"
         y2="449.34869"
         id="line6078" />
      <line
         style="fill:none;stroke:#4d5152;stroke-miterlimit:10"
         stroke-miterlimit="10"
         x1="439.52124"
         y1="452.83768"
         x2="439.52124"
         y2="461.83768"
         id="line6080" />
      <line
         style="fill:none;stroke:#4d5152;stroke-miterlimit:10"
         stroke-miterlimit="10"
         x1="438.02124"
         y1="462.33768"
         x2="441.02124"
         y2="462.33768"
         id="line6082" />
      <polyline
         transform="translate(424.02125,432.83768)"
         style="fill:none;stroke:#4d5152;stroke-miterlimit:10"
         stroke-miterlimit="10"
         points="12.5,29.5 10.5,29.5 15.5,19.5 "
         id="polyline6084" />
      <polyline
         transform="translate(424.02125,432.83768)"
         style="fill:none;stroke:#4d5152;stroke-miterlimit:10"
         stroke-miterlimit="10"
         points="18.5,29.5 20.5,29.5 15.5,19.5 "
         id="polyline6086" />
      <path
         style="fill:none;stroke:#4d5152;stroke-miterlimit:10"
         stroke-miterlimit="10"
         d="m 437.52125,450.33768 0,1 c 0,0 0,1 1,1 1,0 2,0 2,0 0,0 1,0 1,-1 l 0,-1"
         id="path6088" />
    </g>
    <g
       transform="matrix(-0.68691591,0,0,0.6935531,342.40989,193.07136)"
       id="g4285">
      <path
         style="fill:#bfbfbf"
         d="m 202.22955,562.18457 c 0,-50.04908 46.97119,-90.62171 104.91331,-90.62171 57.94212,0 104.91331,40.57263 104.91331,90.62171 0,50.04908 -66.95468,90.62171 -124.8968,90.62171 -57.94212,0 -84.92982,-40.57263 -84.92982,-90.62171 z"
         id="path4186" />
      <path
         style="fill:#acf0f2"
         d="m 222.21304,506.08541 c 0,0 99.91743,0 99.91743,43.1532 0,34.52256 -29.97523,77.67575 -99.91743,77.67575 0,0 -46.83131,-59.06809 0,-120.82895 z"
         id="path4188" />
      <path
         style="fill:none;stroke:#ffffff;stroke-width:9.28628731;stroke-linecap:round;stroke-miterlimit:10"
         stroke-miterlimit="10"
         d="m 232.20478,570.81521 c 0,0 -9.99174,-43.1532 29.97523,-60.41448"
         id="path4190" />
      <path
         style="fill:#aaaaaa"
         d="m 272.17176,652.80628 -19.98349,43.1532 c 0,0 0,8.63064 9.99174,8.63064 9.99175,0 129.89267,-17.26128 149.87616,-69.04512 l -19.98349,-25.89191 c 0,0 -48.30009,48.3661 -119.90092,43.15319 z"
         id="path4192" />
      <path
         style="fill:none;stroke:#4d5152;stroke-width:9.28628731;stroke-miterlimit:10"
         stroke-miterlimit="10"
         d="m 202.22955,562.18457 c 0,-50.04908 46.97119,-90.62171 104.91331,-90.62171 57.94212,0 104.91331,40.57263 104.91331,90.62171 0,50.04908 -66.95468,90.62171 -124.8968,90.62171 -57.94212,0 -84.92982,-40.57263 -84.92982,-90.62171 z"
         id="path4194" />
      <path
         style="fill:none;stroke:#4d5152;stroke-width:9.28628731;stroke-miterlimit:10"
         stroke-miterlimit="10"
         d="m 222.21304,506.08541 c 0,0 99.91743,0 99.91743,43.1532 0,34.52256 -29.97523,77.67575 -99.91743,77.67575"
         id="path4196" />
      <path
         style="fill:#ff61e1"
         d="m 347.10983,553.55393 c 0,0 0,-17.26128 19.98349,-17.26128 19.98349,0 19.98349,17.26128 19.98349,17.26128 l 0,17.26128 c 0,0 0,17.26128 -19.98349,17.26128 -19.98349,0 -19.98349,-17.26128 -19.98349,-17.26128 l 0,-17.26128 z"
         id="path4198" />
      <path
         style="fill:none;stroke:#4d5152;stroke-width:9.28628731;stroke-miterlimit:10"
         stroke-miterlimit="10"
         d="m 347.10983,553.55393 c 0,0 0,-17.26128 19.98349,-17.26128 19.98349,0 19.98349,17.26128 19.98349,17.26128 l 0,17.26128 c 0,0 0,17.26128 -19.98349,17.26128 -19.98349,0 -19.98349,-17.26128 -19.98349,-17.26128 l 0,-17.26128 z"
         id="path4200" />
      <path
         style="fill:none;stroke:#4d5152;stroke-width:9.28628731;stroke-linecap:round;stroke-linejoin:round;stroke-miterlimit:10"
         stroke-miterlimit="10"
         d="m 272.17176,652.80628 -19.98349,43.1532 c 0,0 0,8.63064 9.99174,8.63064 9.99175,0 129.89267,-17.26128 149.87616,-69.04512 l -19.98349,-25.89191"
         id="path4202" />
      <line
         style="fill:none;stroke:#4d5152;stroke-width:9.28628731;stroke-linecap:round;stroke-miterlimit:10"
         stroke-miterlimit="10"
         x1="342.11392"
         y1="609.65302"
         x2="392.07263"
         y2="609.65302"
         id="line4204" />
      <line
         style="fill:none;stroke:#4d5152;stroke-width:9.28628731;stroke-linecap:round;stroke-miterlimit:10"
         stroke-miterlimit="10"
         x1="332.12219"
         y1="626.91431"
         x2="368.642"
         y2="626.91431"
         id="line4206" />
    </g>
    <g
       transform="matrix(0.59938325,-0.56814891,0.61083756,0.60989446,-116.80268,310.96201)"
       id="g6818">
      <path
         style="fill:#ffffff"
         d="m 487.37391,475.23444 c 0,8.98394 0,8.98394 0,26.95181 l -74.89493,0 0,-125.77509 c 10.5042,44.91967 74.89493,89.83935 74.89493,98.82328 z"
         id="path6685" />
      <path
         style="fill:#ffffff"
         d="m 338.94959,376.41116 0,125.77509 -73.52938,0 c 0,-17.96787 0,-17.96787 0,-26.95181 0,-8.98393 63.02519,-53.90361 73.52938,-98.82328 z"
         id="path6687" />
      <path
         style="fill:#bfbfbf"
         d="m 338.94959,502.18625 0,16.35076 -10.50419,10.15185 0,9.43313 c 0,0 -63.02519,-17.96787 -63.02519,-35.93574 l 73.52938,0 z"
         id="path6689" />
      <path
         style="fill:#bfbfbf"
         d="m 487.37391,502.18625 c 0,17.96787 -63.02519,35.93574 -63.02519,35.93574 l 0,-9.43313 -11.86974,-8.53474 0,-17.96787 74.89493,0 z"
         id="path6691" />
      <path
         style="fill:#ffffff"
         d="m 412.47898,358.44329 0,161.71083 -73.52939,0 0,-161.71083 c 0,-17.96787 15.7563,-44.91967 36.7647,-44.91967 21.00839,0 36.76469,26.9518 36.76469,44.91967 z"
         id="path6693" />
      <path
         style="fill:#aaaaaa"
         d="m 338.94959,520.15412 -10.50419,8.98393 0,35.93574 c 0,0 21.00839,0 52.52098,0 31.5126,0 42.0168,0 42.0168,0 l 0,-35.93574 -10.5042,-8.98393 -73.52939,0 z"
         id="path6695" />
      <line
         style="fill:none;stroke:#4d5152;stroke-width:9.71437263;stroke-miterlimit:10"
         stroke-miterlimit="10"
         x1="359.95807"
         y1="533.63025"
         x2="359.95807"
         y2="578.54987"
         id="line6697" />
      <line
         style="fill:none;stroke:#4d5152;stroke-width:9.71437263;stroke-miterlimit:10"
         stroke-miterlimit="10"
         x1="391.47067"
         y1="533.63025"
         x2="391.47067"
         y2="578.54987"
         id="line6699" />
      <line
         style="fill:none;stroke:#4d5152;stroke-width:9.71437263;stroke-miterlimit:10"
         stroke-miterlimit="10"
         x1="270.67239"
         y1="502.18646"
         x2="333.69757"
         y2="502.18646"
         id="line6701" />
      <line
         style="fill:none;stroke:#4d5152;stroke-width:9.71437263;stroke-miterlimit:10"
         stroke-miterlimit="10"
         x1="417.73114"
         y1="502.18646"
         x2="480.75635"
         y2="502.18646"
         id="line6703" />
      <path
         style="fill:#aaaaaa"
         d="m 400.78781,325.70583 c -5.19958,4.86929 -13.56092,10.27762 -25.07352,10.27762 -10.87185,0 -18.93907,-4.81539 -24.18067,-9.4511 0,0 6.67017,-13.00873 24.18067,-13.00873 17.51049,0 25.07352,12.18221 25.07352,12.18221 z"
         id="path6705" />
      <path
         style="fill:#4d5152"
         d="m 396.72268,362.93526 0,8.98393 -42.01679,0 0,-8.98393 c 0,0 0,-8.98394 10.5042,-8.98394 l 21.00839,0 c 0,0 10.5042,0 10.5042,8.98394 z"
         id="path6707" />
      <path
         style="fill:none;stroke:#4d5152;stroke-width:9.71437263;stroke-miterlimit:10"
         stroke-miterlimit="10"
         d="m 412.47898,358.44329 0,161.71083 -73.52939,0 0,-161.71083 c 0,-17.96787 15.7563,-44.91967 36.7647,-44.91967 21.00839,0 36.76469,26.9518 36.76469,44.91967 z"
         id="path6709" />
      <path
         style="fill:none;stroke:#4d5152;stroke-width:9.71437263;stroke-miterlimit:10"
         stroke-miterlimit="10"
         d="m 338.94959,520.15412 -10.50419,8.98393 0,35.93574 c 0,0 21.00839,0 52.52098,0 31.5126,0 42.0168,0 42.0168,0 l 0,-35.93574 -10.5042,-8.98393 -73.52939,0 z"
         id="path6711" />
      <path
         style="fill:none;stroke:#4d5152;stroke-width:9.71437263;stroke-miterlimit:10"
         stroke-miterlimit="10"
         d="m 338.94959,376.41116 c -10.50419,44.91967 -73.52938,89.83935 -73.52938,98.82328 0,8.98394 0,8.98394 0,26.95181 0,17.96787 63.02519,35.93574 63.02519,35.93574"
         id="path6713" />
      <path
         style="fill:none;stroke:#4d5152;stroke-width:9.71437263;stroke-miterlimit:10"
         stroke-miterlimit="10"
         d="m 422.98318,538.12199 c 0,0 63.02518,-17.96787 63.02518,-35.93574 0,-17.96787 0,-17.96787 0,-26.95181 0,-8.98393 -63.02518,-53.90361 -73.52938,-98.82328"
         id="path6715" />
      <line
         style="fill:none;stroke:#4d5152;stroke-width:9.71437263;stroke-miterlimit:10"
         stroke-miterlimit="10"
         x1="359.95807"
         y1="533.63025"
         x2="359.95807"
         y2="578.54987"
         id="line6717" />
      <line
         style="fill:none;stroke:#4d5152;stroke-width:9.71437263;stroke-miterlimit:10"
         stroke-miterlimit="10"
         x1="391.47067"
         y1="533.63025"
         x2="391.47067"
         y2="578.54987"
         id="line6719" />
      <line
         style="fill:none;stroke:#4d5152;stroke-width:9.71437263;stroke-miterlimit:10"
         stroke-miterlimit="10"
         x1="270.67239"
         y1="502.18646"
         x2="333.69757"
         y2="502.18646"
         id="line6721" />
      <line
         style="fill:none;stroke:#4d5152;stroke-width:9.71437263;stroke-miterlimit:10"
         stroke-miterlimit="10"
         x1="417.73114"
         y1="502.18646"
         x2="480.75635"
         y2="502.18646"
         id="line6723" />
      <path
         style="fill:#4d5152"
         d="m 396.72268,362.93526 0,8.98393 -42.01679,0 0,-8.98393 c 0,0 0,-8.98394 10.5042,-8.98394 l 21.00839,0 c 0,0 10.5042,0 10.5042,8.98394 z"
         id="path6725" />
      <path
         style="fill:none;stroke:#4d5152;stroke-width:9.71437263;stroke-miterlimit:10"
         stroke-miterlimit="10"
         d="m 351.53362,326.53235 c 5.2416,4.63571 13.30882,9.4511 24.18067,9.4511 11.5126,0 19.87394,-5.40833 25.07352,-10.27762"
         id="path6727" />
      <line
         style="fill:none;stroke:#4d5152;stroke-width:9.71437263;stroke-miterlimit:10"
         stroke-miterlimit="10"
         x1="344.20178"
         y1="484.2186"
         x2="407.22696"
         y2="484.2186"
         id="line6729" />
    </g>
    <ellipse
       ry="45.714287"
       rx="47.14286"
       cy="406.64792"
       cx="221.42857"
       id="path7961"
       style="fill:#808080;fill-opacity:1;fill-rule:evenodd;stroke:#000000;stroke-opacity:1" />
    <ellipse
       ry="24.285715"
       rx="28.571428"
       cy="525.21936"
       cx="242.85715"
       id="path7963"
       style="fill:#808080;fill-opacity:1;fill-rule:evenodd;stroke:#000000;stroke-opacity:1" />
    <ellipse
       ry="35.714287"
       rx="28.571428"
       cy="459.50507"
       cx="540"
       id="path7965"
       style="fill:#808080;fill-opacity:1;fill-rule:evenodd;stroke:#000000;stroke-opacity:1" />
    <ellipse
       ry="22.857143"
       rx="25.714285"
       cy="726.64795"
       cx="482.85715"
       id="path7967"
       style="fill:#808080;fill-opacity:1;fill-rule:evenodd;stroke:#000000;stroke-opacity:1" />
    <text
       transform="matrix(1.1895771,0,0,0.99448024,-96.866912,-15.255454)"
       id="text3340"
       y="557.93579"
       x="268.98053"
       style="font-style:normal;font-weight:normal;font-size:103.53310394px;line-height:98.00000191%;font-family:sans-serif;letter-spacing:0px;word-spacing:0px;fill:#ffcc00;fill-opacity:1;stroke:none;stroke-width:1px;stroke-linecap:butt;stroke-linejoin:miter;stroke-opacity:1;filter:url(#filter7969);"
       xml:space="preserve"><tspan
         dy="-0.43000001"
         style="font-style:normal;font-variant:normal;font-weight:normal;font-stretch:normal;line-height:98.00000191%;font-family:Aldrich;-inkscape-font-specification:Aldrich;letter-spacing:-0.84000021px;word-spacing:-0.42000002px;fill:#ffcc00;"
         y="557.93579"
         x="268.98053"
         id="tspan3342">Space</tspan><tspan
         style="font-style:normal;font-variant:normal;font-weight:normal;font-stretch:normal;line-height:98.00000191%;font-family:Aldrich;-inkscape-font-specification:Aldrich;letter-spacing:-0.84000021px;word-spacing:-0.42000002px;fill:#ffcc00;"
         id="tspan3344"
         y="659.39825"
         x="268.98053">    Grid</tspan></text>
  </g>
</svg>
